<svg version="1.1" id="Layer_1" xmlns="http://www.w3.org/2000/svg" xmlns:xlink="http://www.w3.org/1999/xlink" x="0px" y="0px"
	 width="100%" viewBox="0 0 1024 1024" enable-background="new 0 0 1024 1024" xml:space="preserve">
<path fill="#000000" opacity="0.000000" stroke="none" 
	d="
M573.000000,1025.000000 
	C382.000000,1025.000000 191.500000,1025.000000 1.000000,1025.000000 
	C1.000000,683.666687 1.000000,342.333344 1.000000,1.000000 
	C342.333344,1.000000 683.666687,1.000000 1025.000000,1.000000 
	C1025.000000,342.333344 1025.000000,683.666687 1025.000000,1025.000000 
	C874.500000,1025.000000 724.000000,1025.000000 573.000000,1025.000000 
M486.499969,896.115723 
	C574.655823,896.104675 662.811707,896.107910 750.967529,896.042603 
	C755.609497,896.039185 760.289551,895.734070 764.887085,895.099731 
	C833.288879,885.662292 881.503479,825.178589 881.320801,761.020264 
	C880.852356,596.541992 881.160339,432.061401 881.226990,267.581726 
	C881.240417,234.560410 871.627625,204.888794 850.405334,179.471710 
	C824.628296,148.599609 791.583862,130.406143 751.188171,130.249893 
	C593.376526,129.639511 435.561035,129.945724 277.747040,130.041168 
	C242.816681,130.062302 212.564941,142.839233 187.379898,166.566513 
	C159.012466,193.291962 144.652573,226.311935 144.710358,265.790436 
	C144.950150,429.603638 144.919373,593.417603 144.690353,757.230774 
	C144.656540,781.413208 148.816879,804.393982 160.887405,825.344788 
	C186.933197,870.552185 225.722626,895.599426 278.525757,895.984009 
	C347.513824,896.486511 416.508240,896.112549 486.499969,896.115723 
z"/>
<path fill="#419DF3" opacity="1.000000" stroke="none" 
	d="
M485.999939,896.115723 
	C416.508240,896.112549 347.513824,896.486511 278.525757,895.984009 
	C225.722626,895.599426 186.933197,870.552185 160.887405,825.344788 
	C148.816879,804.393982 144.656540,781.413208 144.690353,757.230774 
	C144.919373,593.417603 144.950150,429.603638 144.710358,265.790436 
	C144.652573,226.311935 159.012466,193.291962 187.379898,166.566513 
	C212.564941,142.839233 242.816681,130.062302 277.747040,130.041168 
	C435.561035,129.945724 593.376526,129.639511 751.188171,130.249893 
	C791.583862,130.406143 824.628296,148.599609 850.405334,179.471710 
	C871.627625,204.888794 881.240417,234.560410 881.226990,267.581726 
	C881.160339,432.061401 880.852356,596.541992 881.320801,761.020264 
	C881.503479,825.178589 833.288879,885.662292 764.887085,895.099731 
	C760.289551,895.734070 755.609497,896.039185 750.967529,896.042603 
	C662.811707,896.107910 574.655823,896.104675 485.999939,896.115723 
M627.949951,344.441254 
	C563.822266,431.395752 499.694611,518.350220 434.648743,606.549744 
	C433.194427,604.428467 432.420898,602.891724 431.283936,601.702515 
	C410.900146,580.381714 390.482697,559.093018 370.050873,537.818176 
	C352.735565,519.788330 335.660614,501.517090 317.988281,483.843658 
	C299.639832,465.494049 272.031677,465.702698 253.899719,483.654236 
	C236.266312,501.112122 236.107880,529.070435 253.727844,547.481812 
	C304.310638,600.336609 354.975250,653.113159 405.569214,705.957275 
	C412.063782,712.740723 419.595764,717.747864 428.740387,719.983704 
	C448.257324,724.755493 465.526184,717.567566 478.946747,699.355591 
	C566.514709,580.524597 654.091309,461.699982 741.665161,342.873352 
	C755.799683,323.694641 770.009888,304.571045 784.047058,285.321320 
	C796.217346,268.631592 796.818848,247.666473 785.823303,232.055695 
	C766.999634,205.330963 730.680542,205.271362 710.855652,232.051163 
	C683.297913,269.276611 655.856995,306.588470 627.949951,344.441254 
M654.519531,711.961487 
	C645.353760,704.551941 634.134827,703.408264 624.862366,708.938171 
	C615.507751,714.516907 610.542542,725.416809 612.411682,736.270203 
	C614.357117,747.566895 621.889404,755.480469 632.679932,757.564453 
	C643.794312,759.711121 654.664917,754.566345 660.030457,744.619934 
	C665.635925,734.228882 663.681702,721.644714 654.519531,711.961487 
M749.439270,708.925781 
	C747.933533,708.234436 746.473328,707.411682 744.914978,706.872253 
	C731.388672,702.190002 716.475159,709.825378 712.268311,723.542358 
	C707.754333,738.260925 715.765320,753.570435 729.835327,757.113770 
	C744.581604,760.827515 758.695923,752.292664 761.510376,737.507202 
	C763.731567,725.838257 760.088074,716.184875 749.439270,708.925781 
M668.070496,728.500000 
	C668.070496,737.908325 668.070496,747.316711 668.070496,757.000427 
	C673.850464,757.000427 678.829529,757.093628 683.804016,756.981689 
	C695.439880,756.720032 705.619202,748.365295 707.810364,737.393250 
	C710.309998,724.876526 704.315247,712.949036 692.922241,708.361023 
	C684.972229,705.159607 676.671997,706.309082 668.070496,706.513367 
	C668.070496,713.892273 668.070496,720.696167 668.070496,728.500000 
M586.755981,726.553894 
	C586.755981,736.606689 586.755981,746.659485 586.755981,756.663513 
	C591.024841,756.663513 594.428345,756.663513 598.418884,756.663513 
	C598.418884,743.278442 598.418884,730.231567 598.418884,716.606934 
	C602.589600,716.606934 606.173462,716.606934 609.909302,716.606934 
	C609.909302,712.947937 609.909302,709.890137 609.909302,706.580322 
	C598.157837,706.580322 586.774353,706.580322 575.066650,706.580322 
	C575.066650,709.944092 575.066650,713.002380 575.066650,716.660889 
	C578.912964,716.660889 582.492371,716.660889 586.755859,716.660889 
	C586.755859,720.025269 586.755859,722.799072 586.755981,726.553894 
M768.359924,746.968994 
	C766.279114,750.485840 766.496521,754.102295 769.897095,756.170410 
	C771.913635,757.396729 775.798584,757.855713 777.497131,756.693054 
	C779.438721,755.363892 780.981689,751.752869 780.760803,749.308533 
	C780.258423,743.750000 774.112061,742.426086 768.359924,746.968994 
z"/>
<path fill="#FEFFFF" opacity="1.000000" stroke="none" 
	d="
M628.157959,344.152283 
	C655.856995,306.588470 683.297913,269.276611 710.855652,232.051163 
	C730.680542,205.271362 766.999634,205.330963 785.823303,232.055695 
	C796.818848,247.666473 796.217346,268.631592 784.047058,285.321320 
	C770.009888,304.571045 755.799683,323.694641 741.665161,342.873352 
	C654.091309,461.699982 566.514709,580.524597 478.946747,699.355591 
	C465.526184,717.567566 448.257324,724.755493 428.740387,719.983704 
	C419.595764,717.747864 412.063782,712.740723 405.569214,705.957275 
	C354.975250,653.113159 304.310638,600.336609 253.727844,547.481812 
	C236.107880,529.070435 236.266312,501.112122 253.899719,483.654236 
	C272.031677,465.702698 299.639832,465.494049 317.988281,483.843658 
	C335.660614,501.517090 352.735565,519.788330 370.050873,537.818176 
	C390.482697,559.093018 410.900146,580.381714 431.283936,601.702515 
	C432.420898,602.891724 433.194427,604.428467 434.648743,606.549744 
	C499.694611,518.350220 563.822266,431.395752 628.157959,344.152283 
z"/>
<path fill="#FAFDFF" opacity="1.000000" stroke="none" 
	d="
M654.777710,712.208862 
	C663.681702,721.644714 665.635925,734.228882 660.030457,744.619934 
	C654.664917,754.566345 643.794312,759.711121 632.679932,757.564453 
	C621.889404,755.480469 614.357117,747.566895 612.411682,736.270203 
	C610.542542,725.416809 615.507751,714.516907 624.862366,708.938171 
	C634.134827,703.408264 645.353760,704.551941 654.777710,712.208862 
M650.305054,734.174316 
	C650.234375,732.024841 650.396790,729.837036 650.049927,727.733093 
	C648.950012,721.060730 644.583313,717.054138 638.431396,716.809998 
	C631.619019,716.539612 626.822571,720.283386 625.188293,727.146606 
	C622.958496,736.511230 626.940308,744.568298 634.665649,746.323669 
	C642.648193,748.137451 648.100342,744.177185 650.305054,734.174316 
z"/>
<path fill="#FAFDFF" opacity="1.000000" stroke="none" 
	d="
M749.760620,709.107178 
	C760.088074,716.184875 763.731567,725.838257 761.510376,737.507202 
	C758.695923,752.292664 744.581604,760.827515 729.835327,757.113770 
	C715.765320,753.570435 707.754333,738.260925 712.268311,723.542358 
	C716.475159,709.825378 731.388672,702.190002 744.914978,706.872253 
	C746.473328,707.411682 747.933533,708.234436 749.760620,709.107178 
M724.989624,739.077026 
	C728.389771,748.328064 741.757446,748.934937 746.318970,742.196167 
	C750.174866,736.499939 750.464294,730.354492 747.933838,724.137146 
	C746.013428,719.418518 742.401062,716.895325 737.115173,716.767639 
	C731.681946,716.636475 727.136536,718.736938 725.696350,723.793457 
	C724.397095,728.355103 724.975830,733.451599 724.989624,739.077026 
z"/>
<path fill="#FAFDFF" opacity="1.000000" stroke="none" 
	d="
M668.070496,728.000061 
	C668.070496,720.696167 668.070496,713.892273 668.070496,706.513367 
	C676.671997,706.309082 684.972229,705.159607 692.922241,708.361023 
	C704.315247,712.949036 710.309998,724.876526 707.810364,737.393250 
	C705.619202,748.365295 695.439880,756.720032 683.804016,756.981689 
	C678.829529,757.093628 673.850464,757.000427 668.070496,757.000427 
	C668.070496,747.316711 668.070496,737.908325 668.070496,728.000061 
M679.841248,720.726440 
	C679.841248,729.287598 679.841248,737.848755 679.841248,746.368591 
	C689.078491,746.539368 694.507446,741.964966 695.673828,733.743469 
	C696.746216,726.184753 692.121582,718.726379 685.179688,717.286255 
	C683.113647,716.857605 679.883301,715.291748 679.841248,720.726440 
z"/>
<path fill="#FAFCFF" opacity="1.000000" stroke="none" 
	d="
M586.755920,726.063416 
	C586.755859,722.799072 586.755859,720.025269 586.755859,716.660889 
	C582.492371,716.660889 578.912964,716.660889 575.066650,716.660889 
	C575.066650,713.002380 575.066650,709.944092 575.066650,706.580322 
	C586.774353,706.580322 598.157837,706.580322 609.909302,706.580322 
	C609.909302,709.890137 609.909302,712.947937 609.909302,716.606934 
	C606.173462,716.606934 602.589600,716.606934 598.418884,716.606934 
	C598.418884,730.231567 598.418884,743.278442 598.418884,756.663513 
	C594.428345,756.663513 591.024841,756.663513 586.755981,756.663513 
	C586.755981,746.659485 586.755981,736.606689 586.755920,726.063416 
z"/>
<path fill="#F9FCFF" opacity="1.000000" stroke="none" 
	d="
M768.607056,746.664734 
	C774.112061,742.426086 780.258423,743.750000 780.760803,749.308533 
	C780.981689,751.752869 779.438721,755.363892 777.497131,756.693054 
	C775.798584,757.855713 771.913635,757.396729 769.897095,756.170410 
	C766.496521,754.102295 766.279114,750.485840 768.607056,746.664734 
z"/>
<path fill="#449EF3" opacity="1.000000" stroke="none" 
	d="
M650.247192,734.610962 
	C648.100342,744.177185 642.648193,748.137451 634.665649,746.323669 
	C626.940308,744.568298 622.958496,736.511230 625.188293,727.146606 
	C626.822571,720.283386 631.619019,716.539612 638.431396,716.809998 
	C644.583313,717.054138 648.950012,721.060730 650.049927,727.733093 
	C650.396790,729.837036 650.234375,732.024841 650.247192,734.610962 
z"/>
<path fill="#449EF3" opacity="1.000000" stroke="none" 
	d="
M724.858032,738.694641 
	C724.975830,733.451599 724.397095,728.355103 725.696350,723.793457 
	C727.136536,718.736938 731.681946,716.636475 737.115173,716.767639 
	C742.401062,716.895325 746.013428,719.418518 747.933838,724.137146 
	C750.464294,730.354492 750.174866,736.499939 746.318970,742.196167 
	C741.757446,748.934937 728.389771,748.328064 724.858032,738.694641 
z"/>
<path fill="#459FF3" opacity="1.000000" stroke="none" 
	d="
M679.846191,720.254944 
	C679.883301,715.291748 683.113647,716.857605 685.179688,717.286255 
	C692.121582,718.726379 696.746216,726.184753 695.673828,733.743469 
	C694.507446,741.964966 689.078491,746.539368 679.841248,746.368591 
	C679.841248,737.848755 679.841248,729.287598 679.846191,720.254944 
z"/>
</svg>